<svg width="64" height="64" viewBox="0 0 64 64" fill="none" xmlns="http://www.w3.org/2000/svg">
  <defs>
    <linearGradient id="wf" x1="0" y1="0" x2="64" y2="64" gradientUnits="userSpaceOnUse">
      <stop stop-color="#ffffff"/>
      <stop offset="1" stop-color="#9a9a9a"/>
    </linearGradient>
  </defs>
  <circle cx="32" cy="32" r="30" fill="#0a0a0a" stroke="url(#wf)" stroke-width="2"/>
  <!-- anvil -->
  <path d="M16 28h26c0 4-3 6-7 6h-3v3h6c2 0 3 1 3 3v2H21v-2c0-2 1-3 3-3h6v-3h-4c-6 0-10-3-10-8v-1z" fill="url(#wf)"/>
  <rect x="26" y="44" width="12" height="4" rx="1.5" fill="url(#wf)"/>
  <!-- spark -->
  <path d="M46 16l2 5 5 2-5 2-2 5-2-5-5-2 5-2 2-5z" fill="#ffffff"/>
</svg>
