<svg width="192" height="128" viewBox="0 0 192 128" fill="none" xmlns="http://www.w3.org/2000/svg">
  <defs>
    <linearGradient id="bg" x1="0" y1="0" x2="192" y2="128" gradientUnits="userSpaceOnUse">
      <stop stop-color="#2b2b2b"/>
      <stop offset="1" stop-color="#0c0c0c"/>
    </linearGradient>
    <radialGradient id="glow" cx="0.5" cy="0.55" r="0.6">
      <stop stop-color="#f2f2f2" stop-opacity="0.55"/>
      <stop offset="1" stop-color="#f2f2f2" stop-opacity="0"/>
    </radialGradient>
  </defs>
  <rect width="192" height="128" fill="url(#bg)"/>
  <ellipse cx="96" cy="78" rx="70" ry="34" fill="url(#glow)"/>
  <!-- anvil silhouette -->
  <path d="M52 72h62c0 9-7 14-16 14h-7v7h14c5 0 7 2 7 7v4H56v-4c0-5 2-7 7-7h14v-7h-9c-14 0-23-7-23-18v-2z" fill="#e6e6e6"/>
  <rect x="72" y="100" width="28" height="9" rx="3" fill="#cfcfcf"/>
  <!-- sparks -->
  <circle cx="138" cy="40" r="2.5" fill="#ffffff"/>
  <circle cx="150" cy="52" r="1.8" fill="#ffffff"/>
  <circle cx="128" cy="30" r="1.5" fill="#ffffff"/>
</svg>
